<svg xmlns="http://www.w3.org/2000/svg" viewBox="0 0 128 128" role="img" aria-label="Crescent">
  <defs>
    <linearGradient id="bg" x1="18" y1="14" x2="110" y2="116" gradientUnits="userSpaceOnUse"><stop stop-color="#fc4a1a"/><stop offset="1" stop-color="#f7b733"/></linearGradient>
    <linearGradient id="shine" x1="30" y1="22" x2="86" y2="108" gradientUnits="userSpaceOnUse"><stop stop-color="#fff" stop-opacity=".95"/><stop offset="1" stop-color="#fff" stop-opacity=".72"/></linearGradient>
  </defs>
  <circle cx="64" cy="64" r="56" fill="url(#bg)"/>
  <circle cx="46" cy="38" r="18" fill="#fff" opacity=".18"/>
  <path d="M82 28 C66 34 56 48 56 64 C56 80 66 94 82 100 C58 106 34 90 34 64 C34 38 58 22 82 28 Z M91 44 L95 55 L106 55 L97 62 L101 74 L91 67 L81 74 L85 62 L76 55 L87 55 Z" fill="none" stroke="url(#shine)" stroke-width="7" stroke-linecap="round" stroke-linejoin="round"/>
</svg>
