<svg xmlns="http://www.w3.org/2000/svg" viewBox="0 0 128 128" role="img" aria-label="Rocket">
  <defs>
    <linearGradient id="bg" x1="18" y1="14" x2="110" y2="116" gradientUnits="userSpaceOnUse"><stop stop-color="#f953c6"/><stop offset="1" stop-color="#b91d73"/></linearGradient>
    <linearGradient id="shine" x1="30" y1="22" x2="86" y2="108" gradientUnits="userSpaceOnUse"><stop stop-color="#fff" stop-opacity=".95"/><stop offset="1" stop-color="#fff" stop-opacity=".72"/></linearGradient>
  </defs>
  <circle cx="64" cy="64" r="56" fill="url(#bg)"/>
  <circle cx="46" cy="38" r="18" fill="#fff" opacity=".18"/>
  <path d="M72 22 C92 30 100 52 92 74 L74 56 C52 64 38 82 30 102 C50 94 68 80 76 58 L54 36 C60 28 66 24 72 22 Z M76 38 C82 38 86 42 86 48 C86 54 82 58 76 58 C70 58 66 54 66 48 C66 42 70 38 76 38 Z" fill="none" stroke="url(#shine)" stroke-width="7" stroke-linecap="round" stroke-linejoin="round"/>
</svg>
