<svg xmlns="http://www.w3.org/2000/svg" viewBox="0 0 128 128" role="img" aria-label="Sports">
  <defs>
    <linearGradient id="bg" x1="18" y1="14" x2="110" y2="116" gradientUnits="userSpaceOnUse"><stop stop-color="#7f00ff"/><stop offset="1" stop-color="#e100ff"/></linearGradient>
    <linearGradient id="shine" x1="30" y1="22" x2="86" y2="108" gradientUnits="userSpaceOnUse"><stop stop-color="#fff" stop-opacity=".95"/><stop offset="1" stop-color="#fff" stop-opacity=".72"/></linearGradient>
  </defs>
  <circle cx="64" cy="64" r="56" fill="url(#bg)"/>
  <circle cx="46" cy="38" r="18" fill="#fff" opacity=".18"/>
  <path d="M64 24 C86 24 104 42 104 64 C104 86 86 104 64 104 C42 104 24 86 24 64 C24 42 42 24 64 24 Z M38 42 C54 54 74 54 90 42 M38 86 C54 74 74 74 90 86 M64 24 C54 42 54 86 64 104 M64 24 C74 42 74 86 64 104" fill="none" stroke="url(#shine)" stroke-width="7" stroke-linecap="round" stroke-linejoin="round"/>
</svg>
